In the sixth year at Hogwarts School of Witchcraft, and in both wizard and muggle worlds Lord Voldemort and his henchmen are increasingly active. With vacancies to fill at Hogwarts, Professor Dumbledore persuades Horace Slughorn, back from retirement to become the potions teacher, while Professor Snape receives long awaited news. Harry Potter, together with Dumbledore, must face treacherous tasks to defeat his evil nemesis.  
General
ID                               : 1
Complete name                    : Harry Potter & The Half Blood PrinceHarry Potter & The Half Blood Prince.m2ts
Format                           : BDAV
Format/Info                      : Blu-ray Video
File size                        : 3.99 GiB
Duration                         : 2h 33mn
Overall bit rate                 : 3 721 Kbps
Maximum Overall bit rate         : 35.5 Mbps

Video
ID                               : 4113 (0x1011)
Menu ID                          : 1 (0x1)
Format                           : AVC
Format/Info                      : Advanced Video Codec
Format profile                   : High@L4.0
Format settings, CABAC           : Yes
Format settings, ReFrames        : 3 frames
Duration                         : 2h 33mn
Bit rate                         : 2 925 Kbps
Nominal bit rate                 : 2 825 Kbps
Width                            : 1 920 pixels
Height                           : 1 080 pixels
Display aspect ratio             : 16:9
Frame rate                       : 23.976 fps
Resolution                       : 8 bits
Colorimetry                      : 4:2:0
Scan type                        : Progressive
Bits/(Pixel*Frame)               : 0.059
Stream size                      : 3.14 GiB (79%)
Writing library                  : x264 core 80 r1376kGIT 3feaec2


Audio
ID                               : 4352 (0x1100)
Menu ID                          : 1 (0x1)
Format                           : AC-3
Format/Info                      : Audio Coding 3
Duration                         : 2h 33mn
Bit rate mode                    : Constant
Bit rate                         : 640 Kbps
Channel(s)                       : 6 channels
Channel positions                : Front: L C R, Side: L R, LFE
Sampling rate                    : 48.0 KHz
Stream size                      : 703 MiB (17%)
Language                         : English
 
http://leetleech.org/images/56710324174654170753.png 
http://leetleech.org/images/01367355515255174893.png